<svg width="388" height="350" viewBox="0 0 388 350" fill="none" xmlns="http://www.w3.org/2000/svg">
<path d="M320.08 66.0701C294.08 42.9801 255.35 33.2701 221.2 36.4301C204.02 38.0201 190.2 45.1401 174.54 51.4901C152.54 60.3901 138 56.4901 115.54 54.0901C50.33 47.0001 20.23 110 19.1 157C17.72 214.18 57.75 266.36 114.1 280.89C152.03 290.67 188.57 291.08 221.78 278.77C247.7 269.15 254.17 248.03 262.4 223.71C268.7 205.13 274.31 184.16 288.24 169.56C300.97 156.2 314.08 167.45 328.74 159.33C366 138.67 342 85.5301 320.08 66.0701Z" fill="black" fill-opacity="0.4"/>
<path d="M194 349.56C301.083 349.56 387.89 344.492 387.89 338.24C387.89 331.988 301.083 326.92 194 326.92C86.9179 326.92 0.110352 331.988 0.110352 338.24C0.110352 344.492 86.9179 349.56 194 349.56Z" fill="black" fill-opacity="0.4"/>
<path d="M260.5 21.3H29.9805L45.1505 335.24H275.67L260.5 21.3Z" fill="#66DBFC"/>
<path opacity="0.2" d="M260.5 21.3H29.9805L45.1505 335.24H275.67L260.5 21.3Z" fill="black"/>
<path d="M262.63 21.3H32.1104L47.2904 335.24H277.81L262.63 21.3Z" fill="#66DBFC"/>
<path opacity="0.2" d="M250.46 31.8601H42.6504L57.1704 321.05L237.87 320.81L267.9 294.19L250.46 31.8601Z" fill="black"/>
<path d="M252.05 31.8501C254.266 118.456 261.26 204.875 273 290.71C256.534 302.043 240.15 313.377 223.85 324.71H68.4304C53.7608 227.721 45.1508 129.911 42.6504 31.8501H252.05Z" fill="white"/>
<path d="M273.001 290.71C256.534 302.044 240.151 313.377 223.851 324.71C227.411 309.71 231.121 294.71 234.981 279.71L273.001 290.71Z" fill="#EBEBEB"/>
<path d="M99.0007 58.3102C99.3941 68.8969 99.8541 79.4902 100.381 90.0902H68.6107C68.0774 79.4902 67.6174 68.8969 67.2307 58.3102H99.0007ZM102.241 54.9602H63.7607C64.2074 67.7802 64.7641 80.6069 65.4307 93.4402H103.921C103.254 80.6135 102.697 67.7869 102.251 54.9602H102.241Z" fill="#66DBFC"/>
<path d="M228.821 70.2401H120.001C119.901 67.8501 119.811 65.4501 119.721 63.0601H228.531C228.621 65.4501 228.721 67.8501 228.821 70.2401Z" fill="#E0E0E0"/>
<path d="M205.831 85.3401H120.671C120.561 82.9401 120.441 80.5502 120.341 78.1602H205.491C205.604 80.5535 205.717 82.9468 205.831 85.3401Z" fill="#E0E0E0"/>
<path d="M102.12 120.55C102.787 131.15 103.53 141.75 104.35 152.35H72.5703C71.7503 141.75 71.0069 131.15 70.3403 120.55H102.12ZM105.26 117.2H66.7803C67.5669 130.034 68.4636 142.867 69.4703 155.7H108C107 142.874 106.1 130.04 105.3 117.2H105.26Z" fill="#66DBFC"/>
<path d="M163.401 132.49H123.401C123.241 130.09 123.071 127.7 122.921 125.3H162.921C163.071 127.7 163.231 130.09 163.401 132.49Z" fill="#E0E0E0"/>
<path d="M201.271 132.49H171.861C171.701 130.09 171.531 127.7 171.381 125.3H200.791C200.941 127.7 201.101 130.09 201.271 132.49Z" fill="#E0E0E0"/>
<path d="M219.731 147.6H124.501C124.321 145.2 124.151 142.81 123.971 140.41H219.201C219.381 142.81 219.551 145.2 219.731 147.6Z" fill="#E0E0E0"/>
<path d="M106.891 182.82C107.844 193.42 108.871 204.02 109.971 214.62H78.1909C77.0909 204.02 76.0643 193.42 75.1109 182.82H106.891ZM109.951 179.47H71.4609C72.5943 192.31 73.8343 205.147 75.1809 217.98H113.671C112.338 205.14 111.098 192.304 109.951 179.47Z" fill="#66DBFC"/>
<path d="M238.101 202.69H129.271L129.991 209.87H238.821L238.101 202.69Z" fill="#E0E0E0"/>
<path d="M213.001 187.58H127.841C128.061 189.97 128.281 192.37 128.511 194.76H213.661C213.441 192.37 213.211 190 213.001 187.58Z" fill="#E0E0E0"/>
<path d="M113.321 245.09C114.561 255.69 115.871 266.287 117.251 276.88H85.4708C84.0908 266.294 82.7808 255.697 81.5408 245.09H113.321ZM116.321 241.74H77.8008C79.2674 254.58 80.8508 267.41 82.5508 280.23H121.001C119.314 267.41 117.731 254.58 116.251 241.74H116.321Z" fill="#66DBFC"/>
<path d="M244.09 257H135.26C134.97 254.6 134.68 252.21 134.4 249.81H243.22C243.51 252.24 243.79 254.63 244.09 257Z" fill="#E0E0E0"/>
<path d="M186.69 272.13H137.15C136.84 269.74 136.54 267.34 136.24 264.95H185.78C186.08 267.34 186.38 269.74 186.69 272.13Z" fill="#E0E0E0"/>
<path d="M216.271 272.13H194.881C194.571 269.74 194.271 267.34 193.971 264.95H215.361C215.661 267.34 216.001 269.74 216.271 272.13Z" fill="#E0E0E0"/>
<path d="M85.0005 85.5501L83.5905 83.3101C80.5105 78.4101 74.2305 74.0401 72.0605 72.7601L73.6805 69.8901C77.9379 72.4754 81.7418 75.7422 84.9406 79.5601C89.7806 72.9701 96.9406 66.1601 106.741 58.8401L108.811 61.5401C98.3505 69.3701 91.0306 76.5401 86.4106 83.4401L85.0005 85.5501Z" fill="#66DBFC"/>
<path d="M88.8003 147.81L87.3303 145.57C84.1303 140.67 77.7303 136.29 75.5303 135.01L77.0603 132.14C81.3988 134.726 85.292 137.995 88.5903 141.82C93.2503 135.22 100.22 128.41 109.83 121.08C110.54 121.98 111.26 122.88 111.97 123.79C101.72 131.63 94.5903 138.79 90.1603 145.7C89.7003 146.4 89.2503 147.11 88.8003 147.81Z" fill="#66DBFC"/>
<path d="M94.3202 210.24L92.7902 208C89.4502 203.1 82.9302 198.72 80.7002 197.45C81.1802 196.45 81.7002 195.53 82.1602 194.58C86.5663 197.171 90.5409 200.433 93.9402 204.25C98.4302 197.65 105.22 190.85 114.62 183.51L116.84 186.22C106.84 194.06 99.8402 201.22 95.6102 208.13L94.3202 210.24Z" fill="#66DBFC"/>
<path d="M195.131 307.46C189.231 307.46 185.831 305.28 182.831 303.36C179.831 301.44 177.251 299.78 172.271 299.78C167.291 299.78 165.071 301.52 162.721 303.36C160.371 305.2 157.491 307.46 151.591 307.46C145.691 307.46 142.291 305.28 139.301 303.36C136.311 301.44 133.731 299.78 128.741 299.78C123.751 299.78 121.541 301.52 119.191 303.36C116.841 305.2 113.961 307.46 108.071 307.46C102.181 307.46 98.7706 305.28 95.7706 303.36C92.7706 301.44 90.2006 299.78 85.2106 299.78C85.0806 298.78 84.9405 297.86 84.8105 296.9C90.7105 296.9 94.1006 299.08 97.1006 301C100.101 302.92 102.671 304.58 107.651 304.58C112.631 304.58 114.851 302.84 117.201 301C119.551 299.16 122.441 296.9 128.341 296.9C134.241 296.9 137.621 299.08 140.621 301C143.621 302.92 146.201 304.58 151.181 304.58C156.161 304.58 158.381 302.84 160.731 301C163.081 299.16 165.971 296.9 171.871 296.9C177.771 296.9 181.161 299.08 184.161 301C187.161 302.92 189.731 304.58 194.721 304.58C194.851 305.54 195.001 306.5 195.131 307.46Z" fill="#EBEBEB"/>
<path d="M203.59 29.0701C200.21 20.0701 192.4 14.1601 184 14.1601H166.88C165.606 14.149 164.363 13.764 163.305 13.053C162.247 12.3419 161.421 11.3361 160.93 10.1601C159.72 7.28589 157.696 4.828 155.108 3.08868C152.519 1.34936 149.479 0.404441 146.36 0.370114C143.343 0.339521 140.396 1.27254 137.946 3.03338C135.496 4.79421 133.673 7.29093 132.74 10.1601C132.36 11.3341 131.615 12.3556 130.612 13.0754C129.61 13.7951 128.404 14.1752 127.17 14.1601H110.06C101.65 14.1601 94.4102 20.1001 91.9102 29.0701L90.9102 32.6401H204.91L203.59 29.0701Z" fill="#263238"/>
<path d="M204.201 36.1602H92.0005C91.0543 36.1492 90.1473 35.7799 89.4626 35.1267C88.7778 34.4734 88.3661 33.5849 88.3105 32.6402C88.286 32.1863 88.3546 31.7322 88.5121 31.3058C88.6697 30.8794 88.9129 30.4898 89.2267 30.161C89.5406 29.8322 89.9184 29.5711 90.337 29.3938C90.7556 29.2165 91.206 29.1268 91.6605 29.1302H203.861C204.805 29.1411 205.711 29.509 206.395 30.1601C207.08 30.8112 207.492 31.6973 207.551 32.6402C207.577 33.0949 207.509 33.5501 207.352 33.9777C207.195 34.4053 206.952 34.7961 206.638 35.126C206.324 35.4559 205.946 35.7179 205.527 35.8958C205.107 36.0737 204.656 36.1637 204.201 36.1602Z" fill="#66DBFC"/>
<path opacity="0.2" d="M204.201 36.1602H92.0005C91.0543 36.1492 90.1473 35.7799 89.4626 35.1267C88.7778 34.4734 88.3661 33.5849 88.3105 32.6402C88.286 32.1863 88.3546 31.7322 88.5121 31.3058C88.6697 30.8794 88.9129 30.4898 89.2267 30.161C89.5406 29.8322 89.9184 29.5711 90.337 29.3938C90.7556 29.2165 91.206 29.1268 91.6605 29.1302H203.861C204.805 29.1411 205.711 29.509 206.395 30.1601C207.08 30.8112 207.492 31.6973 207.551 32.6402C207.577 33.0949 207.509 33.5501 207.352 33.9777C207.195 34.4053 206.952 34.7961 206.638 35.126C206.324 35.4559 205.946 35.7179 205.527 35.8958C205.107 36.0737 204.656 36.1637 204.201 36.1602Z" fill="black"/>
<path d="M304.919 332.23H297.589L296.859 315.26H304.189L304.919 332.23Z" fill="#FFC3BD"/>
<path d="M348.909 332.23H341.579L337.899 315.26H345.219L348.909 332.23Z" fill="#FFC3BD"/>
<path d="M341.06 331.38H349.29C349.435 331.379 349.576 331.429 349.689 331.52C349.802 331.611 349.88 331.738 349.91 331.88L351.36 338.4C351.393 338.558 351.39 338.722 351.351 338.879C351.312 339.036 351.239 339.182 351.136 339.307C351.034 339.431 350.904 339.531 350.758 339.6C350.611 339.668 350.451 339.702 350.29 339.7C347.42 339.65 346.02 339.48 342.4 339.48C340.17 339.48 335.58 339.71 332.51 339.71C329.44 339.71 329.03 336.71 330.29 336.4C335.94 335.16 338.06 333.46 339.87 331.83C340.198 331.54 340.621 331.38 341.06 331.38Z" fill="#263238"/>
<path d="M297.64 331.38H305.64C305.785 331.379 305.926 331.429 306.039 331.52C306.152 331.611 306.23 331.738 306.26 331.88L307.71 338.4C307.745 338.553 307.746 338.712 307.713 338.865C307.68 339.018 307.613 339.163 307.517 339.287C307.422 339.411 307.3 339.513 307.16 339.584C307.02 339.656 306.866 339.695 306.71 339.7C303.82 339.65 299.65 339.48 296.02 339.48C291.78 339.48 288.12 339.71 283.14 339.71C280.14 339.71 279.3 336.71 280.56 336.4C286.29 335.14 290.97 335.01 295.92 331.95C296.432 331.61 297.026 331.413 297.64 331.38Z" fill="#263238"/>
<path d="M311.999 64.9202C310.999 70.2802 310.419 76.9202 314.169 80.5002C314.169 80.5002 312.019 85.9402 302.059 85.9402C292.959 85.9402 297.519 80.5002 297.519 80.5002C303.519 79.0702 303.179 71.6802 302.139 67.5002L311.999 64.9202Z" fill="#FFC3BD"/>
<path d="M294.66 81.2502C294.86 79.9202 297.2 78.3702 299.86 77.7902C302.52 77.2102 312.74 75.9202 315.86 77.2102C318.98 78.5002 315.32 82.3202 315.32 82.3202L294.66 81.2502Z" fill="#66DBFC"/>
<path opacity="0.4" d="M294.66 81.2502C294.86 79.9202 297.2 78.3702 299.86 77.7902C302.52 77.2102 312.74 75.9202 315.86 77.2102C318.98 78.5002 315.32 82.3202 315.32 82.3202L294.66 81.2502Z" fill="white"/>
<path opacity="0.2" d="M296.859 315.27L297.239 324.01H304.569L304.189 315.27H296.859Z" fill="black"/>
<path opacity="0.2" d="M345.229 315.27H337.899L339.799 324.01H347.129L345.229 315.27Z" fill="black"/>
<path d="M329.35 87.1001L320.52 93.0001C320.52 93.0001 333.2 115.55 332.14 119.16C330.69 124.08 328.67 134.83 325.92 140.29C326.28 141.47 328.11 144.16 329.13 144.62C336.13 139.3 343.2 122.62 342.94 117.95C342.33 107.36 329.35 87.1001 329.35 87.1001Z" fill="#FFC3BD"/>
<path d="M325.919 140.31L318.919 139.77L322.589 147.48C322.589 147.48 328.699 147.75 329.719 143.08L325.919 140.31Z" fill="#B55B52"/>
<path d="M360.52 177.91L359.93 179.02L355.97 186.51L215.39 112.18L219.93 103.58L360.52 177.91Z" fill="#66DBFC"/>
<path d="M369.609 160.74L366.709 166.22L365.069 169.32L224.479 94.9901L229.019 86.3901L369.609 160.74Z" fill="#66DBFC"/>
<path d="M224.526 94.9648L219.977 103.554L360.509 177.994L365.059 169.404L224.526 94.9648Z" fill="#66DBFC"/>
<path opacity="0.2" d="M224.526 94.9648L219.977 103.554L360.509 177.994L365.059 169.404L224.526 94.9648Z" fill="black"/>
<path d="M209.329 87.5302L205.239 95.2702L215.389 112.18L229.019 86.4001L209.329 87.5302Z" fill="#66DBFC"/>
<path opacity="0.8" d="M209.329 87.5302L205.239 95.2702L215.389 112.18L229.019 86.4001L209.329 87.5302Z" fill="white"/>
<path d="M200.89 88.02L205.24 95.27L209.33 87.53L200.89 88.02Z" fill="#66DBFC"/>
<path d="M313.29 143.28L316.95 150.1L322.62 147.48L318.95 139.77L313.29 143.28Z" fill="#B55B52"/>
<path d="M327.25 82.1601C334.18 83.1601 342.12 107.16 342.12 107.16L327.56 115.38C327.56 115.38 321.15 104 318 95.5C314.68 86.61 319.82 81.0801 327.25 82.1601Z" fill="#263238"/>
<path opacity="0.2" d="M323.219 90.3901C320.069 87.5101 321.999 99.8401 323.499 107.73C324.269 109.27 324.999 110.67 325.619 111.84C329.129 105.64 327.559 94.3601 323.219 90.3901Z" fill="black"/>
<path d="M286.21 82.5402C286.21 82.5402 277.56 104.66 285.77 145.86H325C325.27 139.86 321.49 110.5 327.29 82.1602C322.957 81.3236 318.574 80.7691 314.17 80.5002C308.624 80.18 303.065 80.18 297.52 80.5002C293.702 80.8819 289.92 81.564 286.21 82.5402Z" fill="#263238"/>
<path d="M292.24 92.8202L282.36 88.9102C282.36 88.9102 270.98 112.14 267.36 113.31C262.49 114.91 252.49 119.31 246.43 120.17C245.67 121.17 244.49 124.17 244.68 125.27C253.03 128 270.8 124.38 274.48 121.52C282.92 115 292.24 92.8202 292.24 92.8202Z" fill="#FFC3BD"/>
<path opacity="0.2" d="M293.35 90.1801C291.72 86.4201 288.6 84.8501 285.35 85.4001C284.09 90.0101 281.96 100.14 282.35 115.4L284.68 116.52C284.68 116.52 296.14 96.6101 293.35 90.1801Z" fill="black"/>
<path d="M294.91 87.5502C297.37 94.1102 284.91 113.41 284.91 113.41L270.25 105.41C272.452 99.4073 275.292 93.6578 278.72 88.2602C283.87 80.5702 292.2 80.3602 294.91 87.5502Z" fill="#263238"/>
<path d="M246.789 120.15L238.069 122L242.489 130.07C244.927 128.858 247.141 127.242 249.039 125.29L246.789 120.15Z" fill="#FFC3BD"/>
<path d="M233.949 123.83L237.429 128.65L242.489 130.11L238.069 122.04L233.949 123.83Z" fill="#FFC3BD"/>
<path d="M295.38 57.2101C295.38 57.8001 295.01 58.2101 294.62 58.2101C294.23 58.2101 293.95 57.6901 293.99 57.1001C294.03 56.5101 294.36 56.1001 294.75 56.1001C295.14 56.1001 295.42 56.6201 295.38 57.2101Z" fill="#263238"/>
<path d="M295.9 57.26C295.092 59.0219 294.046 60.664 292.79 62.14C293.176 62.4524 293.626 62.6761 294.108 62.7953C294.59 62.9146 295.092 62.9264 295.58 62.83L295.9 57.26Z" fill="#ED847E"/>
<path d="M294.63 55.17C294.577 55.1588 294.526 55.1385 294.48 55.11C294.441 55.0857 294.407 55.0537 294.381 55.0162C294.355 54.9786 294.337 54.9361 294.327 54.8913C294.318 54.8465 294.318 54.8002 294.327 54.7553C294.336 54.7104 294.354 54.6678 294.38 54.63C294.669 54.1617 295.066 53.7689 295.537 53.4838C296.008 53.1987 296.54 53.0294 297.09 52.99C297.181 52.9948 297.267 53.0332 297.332 53.0978C297.396 53.1625 297.435 53.2487 297.44 53.34C297.44 53.4328 297.403 53.5218 297.337 53.5875C297.272 53.6531 297.182 53.69 297.09 53.69C296.663 53.7298 296.252 53.869 295.889 54.0965C295.526 54.324 295.221 54.6335 295 55C294.963 55.0634 294.908 55.1138 294.842 55.1443C294.776 55.1748 294.701 55.1838 294.63 55.17Z" fill="#263238"/>
<path d="M315.26 56.7002C314.4 63.9202 314.26 68.1802 310.39 71.7002C304.56 76.9802 295.81 73.1502 294.49 65.8102C293.31 59.2102 294.92 48.5202 302.18 46.0402C303.777 45.4874 305.489 45.3521 307.154 45.647C308.818 45.9419 310.38 46.6573 311.69 47.7252C313.001 48.7931 314.016 50.1782 314.641 51.7489C315.266 53.3197 315.479 55.024 315.26 56.7002Z" fill="#FFC3BD"/>
<path d="M300.71 58.1101C298.18 58.6101 294.14 52.9901 297.44 48.2201C295.77 47.3901 290.32 50.6701 288.27 47.6101C286.22 44.5501 291.91 42.9201 290.82 40.3301C294.68 41.1201 288.32 45.9401 291.99 45.4701C295.66 45.0001 299.89 38.2201 303.99 41.0001C311.24 45.8701 321.12 37.7501 317.09 47.9201C322.03 46.9201 325.41 52.7601 320.7 56.8101C311.31 64.8601 317.09 65.9201 311.14 66.3301C308.16 66.5501 301.23 63.0001 300.71 58.1101Z" fill="#263238"/>
<path d="M304.46 60.0001C304.114 60.7219 303.627 61.3672 303.027 61.8979C302.428 62.4285 301.728 62.8339 300.97 63.0901C298.97 63.7801 297.82 61.9901 298.29 60.0201C298.71 58.2401 300.29 55.7401 302.36 55.9201C302.814 55.9645 303.25 56.1221 303.628 56.3785C304.005 56.6349 304.313 56.9819 304.522 57.3878C304.731 57.7937 304.834 58.2455 304.824 58.7018C304.813 59.1582 304.688 59.6046 304.46 60.0001Z" fill="#FFC3BD"/>
<path d="M299.669 145.86C299.669 145.86 307.989 201.86 312.549 222.86C317.549 245.86 336.379 322.35 336.379 322.35H349.799C349.799 322.35 337.389 247.69 334.529 224.94C331.439 200.26 324.959 145.89 324.959 145.89L299.669 145.86Z" fill="#66DBFC"/>
<path opacity="0.2" d="M299.669 145.86C299.669 145.86 307.989 201.86 312.549 222.86C317.549 245.86 336.379 322.35 336.379 322.35H349.799C349.799 322.35 337.389 247.69 334.529 224.94C331.439 200.26 324.959 145.89 324.959 145.89L299.669 145.86Z" fill="white"/>
<path opacity="0.2" d="M309.55 165.44C308.93 164.56 308.37 164.26 307.85 164.44H307.74C307.621 164.492 307.51 164.559 307.41 164.64C307.303 164.727 307.206 164.824 307.12 164.93L306.96 165.13L306.75 165.46C306.576 165.751 306.426 166.055 306.3 166.37C306.22 166.56 306.14 166.76 306.07 166.96C306 167.16 305.89 167.47 305.81 167.75C305.73 168.03 305.58 168.51 305.47 168.92C305.47 169.03 305.42 169.13 305.39 169.24C305.36 169.35 305.28 169.7 305.23 169.93C305.18 170.16 305.14 170.33 305.1 170.53C305.01 170.92 304.93 171.33 304.85 171.75C304.77 172.17 304.68 172.66 304.6 173.13C304.6 173.29 304.55 173.45 304.52 173.62C304.42 174.22 304.33 174.83 304.24 175.46C306.46 189.4 309.1 205.38 311.24 216.53C311.34 216.17 311.45 215.79 311.54 215.38C311.976 213.52 312.31 211.637 312.54 209.74C314.43 195.37 313.56 171.17 309.55 165.44Z" fill="black"/>
<path d="M285.77 145.86C285.77 145.86 284.77 200.64 285.56 222.99C286.39 246.23 294.51 322.32 294.51 322.32H306.92C306.92 322.32 307.37 247.58 307.92 224.76C308.52 199.88 311.52 145.86 311.52 145.86H285.77Z" fill="#66DBFC"/>
<path opacity="0.2" d="M285.77 145.86C285.77 145.86 284.77 200.64 285.56 222.99C286.39 246.23 294.51 322.32 294.51 322.32H306.92C306.92 322.32 307.37 247.58 307.92 224.76C308.52 199.88 311.52 145.86 311.52 145.86H285.77Z" fill="white"/>
<path d="M307.74 318.52C307.79 318.52 307.74 322.57 307.74 322.57H293.43L292.83 318.02L307.74 318.52Z" fill="#263238"/>
<path d="M349.799 318.82C349.859 318.82 350.469 322.57 350.469 322.57H335.719L334.419 318.27L349.799 318.82Z" fill="#263238"/>
<path d="M338.64 332.66C338.141 332.701 337.644 332.57 337.23 332.29C337.095 332.181 336.991 332.039 336.928 331.878C336.865 331.716 336.845 331.541 336.87 331.37C336.871 331.27 336.898 331.172 336.949 331.086C337 331 337.073 330.929 337.16 330.88C337.97 330.47 340.34 331.88 340.61 332.08C340.637 332.1 340.658 332.128 340.671 332.16C340.683 332.192 340.686 332.226 340.68 332.26C340.675 332.294 340.659 332.325 340.636 332.35C340.613 332.375 340.583 332.392 340.55 332.4C339.924 332.556 339.284 332.643 338.64 332.66ZM337.55 331.15C337.474 331.133 337.395 331.133 337.32 331.15C337.285 331.17 337.256 331.199 337.237 331.235C337.217 331.27 337.208 331.31 337.21 331.35C337.194 331.467 337.208 331.585 337.25 331.695C337.292 331.805 337.361 331.903 337.45 331.98C338.266 332.359 339.197 332.409 340.05 332.12C339.287 331.639 338.438 331.309 337.55 331.15Z" fill="#66DBFC"/>
<path d="M340.509 332.41C340.483 332.419 340.455 332.419 340.429 332.41C339.669 332 338.209 330.41 338.359 329.58C338.385 329.453 338.454 329.339 338.554 329.257C338.654 329.175 338.78 329.13 338.909 329.13C339.041 329.11 339.176 329.12 339.304 329.158C339.432 329.196 339.55 329.262 339.649 329.35C340.499 330.04 340.649 332.16 340.649 332.25C340.649 332.281 340.641 332.312 340.627 332.339C340.613 332.367 340.594 332.391 340.569 332.41C340.55 332.414 340.529 332.414 340.509 332.41ZM339.029 329.41H338.999C338.769 329.41 338.749 329.54 338.739 329.59C338.649 330.07 339.579 331.28 340.339 331.85C340.287 331.017 339.984 330.218 339.469 329.56C339.406 329.505 339.33 329.465 339.249 329.442C339.168 329.42 339.082 329.416 338.999 329.43L339.029 329.41Z" fill="#66DBFC"/>
<path d="M294.59 332.66C293.962 332.718 293.334 332.56 292.81 332.21C292.694 332.105 292.605 331.974 292.55 331.828C292.494 331.682 292.474 331.525 292.49 331.37C292.49 331.275 292.516 331.182 292.565 331.101C292.615 331.02 292.685 330.954 292.77 330.91C293.66 330.41 296.61 331.91 296.94 332.08C296.973 332.095 297 332.121 297.016 332.154C297.033 332.187 297.037 332.224 297.03 332.26C297.025 332.296 297.009 332.329 296.984 332.354C296.958 332.38 296.925 332.396 296.89 332.4C296.133 332.562 295.363 332.649 294.59 332.66ZM293.26 331.15C293.15 331.146 293.04 331.166 292.94 331.21C292.906 331.229 292.879 331.257 292.859 331.29C292.84 331.324 292.83 331.362 292.83 331.4C292.815 331.502 292.827 331.606 292.864 331.702C292.901 331.798 292.961 331.884 293.04 331.95C293.49 332.35 294.7 332.42 296.32 332.15C295.363 331.648 294.328 331.31 293.26 331.15Z" fill="#66DBFC"/>
<path d="M296.86 332.41H296.79C295.9 332.01 294.15 330.41 294.29 329.6C294.29 329.41 294.46 329.16 294.93 329.12C295.107 329.094 295.289 329.106 295.461 329.156C295.634 329.206 295.794 329.293 295.93 329.41C296.86 330.18 297.05 332.15 297.06 332.24C297.064 332.269 297.06 332.299 297.047 332.326C297.035 332.352 297.015 332.375 296.99 332.39C296.95 332.413 296.904 332.42 296.86 332.41ZM295.07 329.41H295C294.69 329.41 294.67 329.56 294.66 329.61C294.58 330.1 295.77 331.35 296.66 331.89C296.573 331.05 296.223 330.259 295.66 329.63C295.489 329.502 295.283 329.432 295.07 329.43V329.41Z" fill="#66DBFC"/>
</svg>
