<?xml version="1.0" standalone="no"?>
<!DOCTYPE svg PUBLIC "-//W3C//DTD SVG 20010904//EN"
 "http://www.w3.org/TR/2001/REC-SVG-20010904/DTD/svg10.dtd">
<svg version="1.0" xmlns="http://www.w3.org/2000/svg"
 width="500.000000pt" height="500.000000pt" viewBox="0 0 500.000000 500.000000"
 preserveAspectRatio="xMidYMid meet">
<metadata>
Created by potrace 1.14, written by Peter Selinger 2001-2017
</metadata>
<g transform="translate(0.000000,500.000000) scale(0.100000,-0.100000)"
fill="#000000" stroke="none">
<path d="M2250 4989 c-1145 -124 -2053 -993 -2225 -2129 -22 -148 -30 -429
-16 -580 56 -593 307 -1127 725 -1546 387 -386 864 -627 1406 -709 148 -22
429 -30 580 -16 489 47 960 235 1340 538 113 89 298 275 392 393 274 343 457
763 523 1200 23 149 30 429 16 580 -112 1160 -979 2078 -2131 2255 -125 19
-487 28 -610 14z m790 -1165 c0 -3 -51 -93 -112 -200 l-113 -194 -440 0 -440
0 -125 -197 c-68 -109 -145 -231 -171 -271 l-46 -73 -108 181 -107 180 188
290 189 290 643 0 c353 0 642 -3 642 -6z m448 -435 c56 -91 102 -171 104 -176
2 -6 -168 -281 -377 -611 l-379 -602 -219 0 -219 0 19 33 c43 72 936 1513 946
1525 6 7 13 9 17 5 4 -4 53 -83 108 -174z m-950 -361 c-8 -13 -221 -369 -473
-793 -252 -424 -459 -771 -460 -773 -1 -2 -55 83 -119 187 l-117 190 373 605
373 605 219 1 218 0 -14 -22z m951 -1060 c54 -92 102 -171 105 -176 3 -5 -79
-139 -182 -298 l-188 -289 -648 -3 c-356 -1 -646 2 -644 6 1 5 54 97 117 205
l114 197 441 0 441 0 114 183 c179 284 222 350 226 345 3 -2 49 -79 104 -170z"/>
</g>
</svg>
